<svg width="458" height="500" viewBox="0 0 458 500" fill="none" xmlns="http://www.w3.org/2000/svg">
<path d="M37.6535 201.043C37.6545 201.7 37.5262 202.35 37.2759 202.957C37.0256 203.564 36.6582 204.116 36.1947 204.581C35.7311 205.046 35.1805 205.415 34.5743 205.667C33.968 205.92 33.3181 206.05 32.6615 206.051L5.11747 206.097H5.10947C3.78339 206.098 2.5112 205.572 1.57276 204.635C0.634333 203.698 0.106531 202.427 0.10547 201.101C0.104409 199.775 0.630176 198.503 1.56711 197.564C2.50404 196.626 3.77539 196.098 5.10147 196.097L32.6455 196.051H32.6535C33.9782 196.051 35.2487 196.577 36.1862 197.513C37.1236 198.449 37.6513 199.718 37.6535 201.043ZM86.0475 97.513C86.5159 98.0325 87.0884 98.4476 87.7277 98.7313C88.3671 99.0151 89.059 99.1611 89.7585 99.16C90.7256 99.1593 91.6719 98.8783 92.4826 98.3508C93.2933 97.8233 93.9336 97.0721 94.326 96.1881C94.7184 95.3041 94.8461 94.3253 94.6935 93.3702C94.541 92.4151 94.1147 91.5248 93.4665 90.807L77.2015 72.81C76.3108 71.8319 75.0689 71.2467 73.7476 71.1824C72.4264 71.1181 71.1335 71.58 70.1521 72.4669C69.1706 73.3539 68.5807 74.5936 68.5114 75.9146C68.4422 77.2356 68.8992 78.5303 69.7825 79.515L86.0475 97.513ZM201.819 63.554C203.146 63.554 204.417 63.0272 205.355 62.0895C206.293 61.1518 206.819 59.8801 206.819 58.554V34.474C206.819 33.1479 206.293 31.8761 205.355 30.9385C204.417 30.0008 203.146 29.474 201.819 29.474C200.493 29.474 199.222 30.0008 198.284 30.9385C197.346 31.8761 196.819 33.1479 196.819 34.474V58.554C196.819 59.8801 197.346 61.1518 198.284 62.0895C199.222 63.0272 200.493 63.554 201.819 63.554ZM457.895 92.563V127.545C457.896 128.703 457.493 129.825 456.758 130.72C456.022 131.615 454.999 132.226 453.862 132.45L435.363 136.097L428.138 153.514L438.646 169.183C439.292 170.145 439.583 171.301 439.47 172.454C439.358 173.606 438.849 174.684 438.029 175.503L413.293 200.239C412.474 201.058 411.397 201.567 410.244 201.679C409.091 201.792 407.935 201.501 406.973 200.856L391.304 190.348L373.887 197.573L370.239 216.072C370.015 217.208 369.404 218.232 368.509 218.967C367.615 219.703 366.493 220.105 365.334 220.105H344.154C343.344 267.823 323.103 296.093 305.19 321.083C289.33 343.21 275.632 362.32 275.632 391.471V438.983C275.632 455.046 262.564 468.114 246.5 468.114H243.744V476.531C243.744 489.471 233.216 500 220.275 500H183.868C170.927 500 160.399 489.472 160.399 476.531V468.114H157.643C141.58 468.114 128.511 455.046 128.511 438.983V391.471C128.511 362.32 114.813 343.21 98.9535 321.083C80.6715 295.579 59.9515 266.671 59.9515 217.146C59.9515 177.621 75.4205 144.411 104.686 121.106C130.437 100.601 165.022 89.308 202.071 89.308C214.073 89.3015 226.043 90.5357 237.79 92.991V92.561C237.79 91.4028 238.193 90.2805 238.928 89.3859C239.664 88.4913 240.687 87.8798 241.823 87.656L260.322 84.008L267.547 66.591L257.039 50.922C256.395 49.96 256.104 48.8041 256.216 47.6515C256.329 46.4989 256.838 45.4211 257.656 44.602L282.392 19.866C283.211 19.0471 284.289 18.538 285.442 18.4254C286.595 18.3129 287.751 18.604 288.712 19.249L304.381 29.757L321.798 22.532L325.446 4.033C325.67 2.89671 326.282 1.87342 327.177 1.13787C328.071 0.402324 329.193 0.000138971 330.351 0H365.332C366.491 0.000138971 367.613 0.402324 368.507 1.13787C369.402 1.87342 370.013 2.89671 370.237 4.033L373.885 22.532L391.302 29.757L406.971 19.249C407.933 18.604 409.089 18.3129 410.242 18.4254C411.395 18.538 412.472 19.0471 413.291 19.866L438.027 44.602C438.846 45.421 439.356 46.4988 439.468 47.6515C439.581 48.8041 439.289 49.9601 438.644 50.922L428.136 66.591L435.361 84.008L453.86 87.656C454.997 87.88 456.02 88.4915 456.756 89.3861C457.491 90.2807 457.893 91.4028 457.893 92.561L457.895 92.563ZM138.511 423.41H265.632V398.703H138.511V423.41ZM184.688 300.461V388.703H219.454V300.461C219.454 298.726 219.468 297.007 219.498 295.309C213.886 296.416 208.054 296.991 202.071 296.991C196.088 296.991 190.256 296.416 184.644 295.309C184.674 297.008 184.688 298.726 184.688 300.461ZM233.744 468.115H170.399V476.532C170.399 483.959 176.441 490.001 183.868 490.001H220.275C227.702 490.001 233.744 483.959 233.744 476.532V468.115ZM265.632 438.984V433.41H138.511V438.984C138.511 449.533 147.094 458.115 157.643 458.115H246.5C257.049 458.115 265.632 449.533 265.632 438.984ZM334.155 220.107H330.352C329.194 220.107 328.072 219.705 327.177 218.969C326.283 218.234 325.671 217.21 325.447 216.074L321.799 197.575L304.382 190.35L288.713 200.858C287.752 201.503 286.596 201.794 285.443 201.681C284.29 201.569 283.213 201.06 282.393 200.241L257.657 175.505C256.839 174.686 256.33 173.608 256.217 172.456C256.105 171.303 256.396 170.147 257.04 169.185L267.548 153.516L260.323 136.098L241.824 132.451C240.688 132.227 239.665 131.616 238.929 130.721C238.194 129.826 237.792 128.704 237.791 127.546V103.225C226.207 100.635 214.213 99.311 202.072 99.311C138.439 99.311 69.9515 136.186 69.9515 217.148C69.9515 263.46 88.8265 289.793 107.081 315.259C122.779 337.159 137.628 357.881 138.471 388.704H174.688V300.462C174.688 297.796 174.653 295.205 174.584 292.68C154.439 286.063 138.07 272.156 129.236 253.216C119.812 233.011 119.448 215.37 128.261 206.027C133.39 200.589 140.995 199.148 148.604 202.17C158.297 206.021 167.12 216.483 173.447 231.631C179.478 246.069 183.105 263.972 184.272 285.002C189.954 286.31 195.919 286.993 202.07 286.993C208.221 286.993 214.186 286.31 219.868 285.002C221.035 263.973 224.662 246.07 230.693 231.632C237.02 216.484 245.843 206.021 255.536 202.171C263.144 199.149 270.75 200.591 275.879 206.028C284.693 215.371 284.329 233.012 274.904 253.217C266.071 272.157 249.701 286.065 229.557 292.681C229.487 295.274 229.452 297.869 229.452 300.463V388.705H265.671C266.514 357.882 281.363 337.16 297.061 315.26C314.921 290.343 333.365 264.584 334.153 220.108L334.155 220.107ZM265.844 248.989C274.259 230.947 273.295 217.858 268.607 212.888C266.998 211.182 265.124 210.601 263.32 210.601C261.85 210.601 260.426 210.986 259.23 211.462C249.375 215.377 233.439 234.611 230.086 281.861C245.958 275.683 258.746 264.207 265.844 248.988V248.989ZM144.913 211.463C143.716 210.988 142.292 210.602 140.823 210.602C139.019 210.602 137.146 211.182 135.536 212.889C130.848 217.858 129.885 230.949 138.299 248.99C145.397 264.209 158.186 275.684 174.057 281.863C170.703 234.614 154.768 215.378 144.913 211.463ZM447.895 96.673L430.803 93.302C429.996 93.1428 429.24 92.7867 428.603 92.2653C427.966 91.7438 427.468 91.0732 427.152 90.313L417.875 67.949C417.559 67.1878 417.437 66.3602 417.518 65.54C417.599 64.7197 417.882 63.9324 418.341 63.248L428.052 48.767L409.129 29.844L394.648 39.555C393.964 40.014 393.177 40.2967 392.357 40.3778C391.537 40.4589 390.71 40.336 389.948 40.02L367.584 30.743C366.824 30.4276 366.153 29.9293 365.632 29.2924C365.11 28.6555 364.754 27.8997 364.594 27.092L361.223 10H334.462L331.091 27.092C330.932 27.8997 330.576 28.6555 330.054 29.2924C329.533 29.9293 328.862 30.4276 328.101 30.743L305.737 40.02C304.976 40.3356 304.149 40.4583 303.329 40.3771C302.509 40.296 301.722 40.0136 301.037 39.555L286.556 29.844L267.633 48.767L277.344 63.248C277.804 63.9323 278.086 64.7196 278.167 65.5396C278.248 66.3596 278.126 67.187 277.809 67.948L268.532 90.312C268.217 91.0724 267.719 91.7431 267.082 92.2647C266.445 92.7863 265.689 93.1426 264.881 93.302L247.789 96.673V123.434L264.881 126.804C265.689 126.963 266.445 127.32 267.082 127.841C267.719 128.363 268.217 129.034 268.532 129.794L277.809 152.159C278.126 152.92 278.248 153.747 278.167 154.567C278.086 155.387 277.804 156.175 277.344 156.859L267.633 171.34L286.556 190.263L301.037 180.552C301.722 180.093 302.509 179.81 303.329 179.729C304.149 179.648 304.976 179.771 305.737 180.087L328.101 189.364C328.862 189.679 329.533 190.178 330.054 190.815C330.576 191.452 330.932 192.207 331.091 193.015L334.462 210.107H361.223L364.594 193.015C364.754 192.207 365.11 191.451 365.631 190.814C366.153 190.177 366.824 189.679 367.584 189.364L389.948 180.087C390.71 179.771 391.537 179.648 392.357 179.729C393.177 179.81 393.964 180.093 394.648 180.552L409.129 190.263L428.052 171.34L418.341 156.859C417.882 156.175 417.6 155.387 417.518 154.567C417.437 153.747 417.56 152.919 417.875 152.158L427.152 129.794C427.468 129.034 427.966 128.363 428.603 127.841C429.24 127.32 429.996 126.963 430.803 126.804L447.895 123.434V96.673ZM406.716 110.054C406.716 142.517 380.305 168.928 347.842 168.928C315.379 168.928 288.968 142.517 288.968 110.054C288.968 77.591 315.379 51.18 347.842 51.18C380.305 51.18 406.716 77.591 406.716 110.054ZM396.716 110.054C396.716 83.105 374.791 61.18 347.842 61.18C320.893 61.18 298.968 83.105 298.968 110.054C298.968 137.003 320.892 158.928 347.842 158.928C374.792 158.928 396.716 137.004 396.716 110.054Z" fill="url(#paint0_linear_864_194)"/>
<defs>
<linearGradient id="paint0_linear_864_194" x1="229.002" y1="500.001" x2="229.002" y2="0.00101328" gradientUnits="userSpaceOnUse">
<stop stop-color="#7678EC"/>
<stop offset="1" stop-color="#83D4F9"/>
</linearGradient>
</defs>
</svg>
