<svg width="496" height="494" viewBox="0 0 496 494" fill="none" xmlns="http://www.w3.org/2000/svg">
<path d="M248.003 149.336C274.475 149.336 296.003 127.808 296.003 101.336C296.003 74.864 274.475 53.336 248.003 53.336C221.531 53.336 200.003 74.864 200.003 101.336C200.003 127.808 221.531 149.336 248.003 149.336ZM248.003 69.336C265.651 69.336 280.003 83.688 280.003 101.336C280.003 118.984 265.651 133.336 248.003 133.336C230.355 133.336 216.003 118.984 216.003 101.336C216.003 83.688 230.355 69.336 248.003 69.336ZM480.003 477.336H496.003V493.336H480.003V477.336ZM16.0027 493.336H0.0027271V477.336H16.0027V493.336ZM320.003 445.336V461.336H288.003V445.336H320.003ZM192.003 429.336H160.003V413.336H192.003V429.336ZM192.003 461.336H160.003V445.336H192.003V461.336ZM318.995 41.392L324.883 26.6L300.763 31.424C293.161 32.9151 285.292 32.2395 278.056 29.4741C270.819 26.7087 264.505 21.9649 259.835 15.784L248.003 0L236.171 15.784C231.501 21.9657 225.187 26.71 217.95 29.4754C210.714 32.2409 202.845 32.9161 195.243 31.424L171.123 26.6L177.011 41.384C145.304 52.3643 116.602 70.603 93.1944 94.6449C69.7873 118.687 52.3229 147.867 42.1947 179.856C20.1227 190.016 3.76273 211.12 0.602727 235.912C-2.97327 263.976 9.54673 290.832 33.2747 306C37.4267 308.656 40.0027 313.76 40.0027 319.336V333.336C40.0027 349.68 52.3707 363.048 68.2107 364.952C84.0469 388.63 104.358 408.985 128.003 424.872V477.336H32.0027V493.336H464.003V477.336H352.003V434.584C385.165 416.333 412.956 389.696 432.595 357.336H480.003V341.336H464.003V325.336H496.003V181.336H454.243C434.075 116.44 383.131 63.784 318.995 41.392ZM400.003 309.336V261.336H432.003V309.336H400.003ZM352.003 261.336H384.003V309.336H352.003V261.336ZM352.003 245.336V197.336H384.003V245.336H352.003ZM400.003 245.336V197.336H432.003V245.336H400.003ZM195.291 47.656C205.145 49.0155 215.184 47.7926 224.424 44.1073C233.664 40.4219 241.789 34.4003 248.003 26.632C254.217 34.4022 262.343 40.425 271.585 44.1105C280.826 47.796 290.867 49.0177 300.723 47.656C299.082 57.6164 300.127 67.8343 303.751 77.2561C307.374 86.6779 313.446 94.9626 321.339 101.256C313.447 107.358 307.29 115.42 303.481 124.639C299.672 133.859 298.343 143.915 299.627 153.808C289.833 152.714 279.923 154.186 270.87 158.082C261.818 161.977 253.934 168.16 247.995 176.024C241.778 168.26 233.652 162.242 224.413 158.56C215.173 154.877 205.136 153.656 195.283 155.016C196.929 145.034 195.877 134.794 192.235 125.356C188.593 115.918 182.495 107.625 174.571 101.336C182.494 95.0463 188.593 86.7534 192.236 77.3157C195.879 67.8779 196.933 57.6382 195.291 47.656ZM41.8987 292.52C23.4267 280.72 13.6907 259.808 16.4827 237.936C19.6747 212.84 40.2747 192.552 65.4427 189.704C67.6667 189.456 69.8747 189.336 72.0667 189.336C85.8102 189.292 99.0785 194.362 109.291 203.56C115.173 208.815 119.881 215.252 123.105 222.451C126.33 229.65 127.999 237.448 128.003 245.336C128.016 254.719 125.663 263.954 121.16 272.186C116.657 280.418 110.151 287.382 102.243 292.432C93.7867 297.864 88.6187 307.096 88.0987 317.336H80.0027V267.864C84.6686 266.219 88.7112 263.171 91.5759 259.138C94.4405 255.104 95.9869 250.283 96.0027 245.336C96.0027 232.104 85.2347 221.336 72.0027 221.336C58.7707 221.336 48.0027 232.104 48.0027 245.336C48.0027 255.752 54.7147 264.552 64.0027 267.864V317.336H55.8827C55.2907 307.008 50.1947 297.824 41.8987 292.52ZM64.0027 245.336C64.0027 240.928 67.5947 237.336 72.0027 237.336C76.4107 237.336 80.0027 240.928 80.0027 245.336C80.0027 249.744 76.4107 253.336 72.0027 253.336C67.5947 253.336 64.0027 249.744 64.0027 245.336ZM56.0027 333.336H88.0027C88.0027 342.16 80.8267 349.336 72.0027 349.336C63.1787 349.336 56.0027 342.16 56.0027 333.336ZM288.003 349.336V385.976L256.003 379.576V477.336H224.003V363.576L208.003 366.776V349.336H288.003ZM208.003 383.096V477.336H144.003V395.896L208.003 383.096ZM272.003 477.336V399.096L336.003 411.896V477.336H272.003ZM352.003 416.144V398.776L304.003 389.176V333.336H288.003V317.336H272.003V333.336H256.003V301.336H240.003V333.336H224.003V317.336H208.003V333.336H192.003V369.976L128.003 382.776V405.248C111.817 393.078 97.5465 378.552 85.6667 362.152C91.1362 359.576 95.7624 355.5 99.0081 350.4C102.254 345.299 103.986 339.382 104.003 333.336V319C104.003 313.648 106.643 308.624 110.899 305.888C121.065 299.394 129.428 290.441 135.214 279.856C141.001 269.272 144.024 257.399 144.003 245.336C143.996 235.197 141.851 225.173 137.707 215.919C133.563 206.665 127.514 198.389 119.955 191.632C112.351 184.866 103.405 179.781 93.7011 176.71C83.9974 173.638 73.7547 172.65 63.6427 173.808C62.7707 173.904 61.9227 174.088 61.0587 174.216C71.255 147.3 87.1592 122.912 107.678 102.727C128.197 82.5425 152.843 67.0409 179.923 57.288C179.863 64.2917 178.002 71.1622 174.519 77.2387C171.036 83.3151 166.048 88.3931 160.035 91.984L144.459 101.336L160.043 110.688C168.442 115.687 174.775 123.529 177.893 132.793C181.011 142.057 180.71 152.131 177.043 161.192L171.123 176.072L195.243 171.248C202.845 169.758 210.713 170.434 217.949 173.199C225.186 175.965 231.5 180.708 236.171 186.888L248.003 202.672L260.579 185.912C265.07 179.899 271.126 175.236 278.087 172.432C285.048 169.627 292.646 168.789 300.051 170.008L322.531 173.672L317.731 160.776C314.39 151.787 314.297 141.913 317.467 132.863C320.637 123.813 326.871 116.156 335.091 111.216L351.555 101.336L335.971 91.984C329.962 88.3923 324.978 83.3162 321.497 77.2431C318.015 71.17 316.154 64.3039 316.091 57.304C372.819 77.92 418.115 124.2 437.483 181.336H336.003V325.336H368.003V341.336H352.003V357.336H413.731C397.614 381.142 376.561 401.199 352.003 416.144ZM448.003 341.336H384.003V325.336H448.003V341.336ZM448.003 309.336V261.336H480.003V309.336H448.003ZM480.003 245.336H448.003V197.336H480.003V245.336ZM192.003 221.336H304.003V237.336H192.003V221.336ZM288.003 253.336H304.003V269.336H288.003V253.336ZM192.003 253.336H208.003V269.336H192.003V253.336ZM224.003 253.336H240.003V269.336H224.003V253.336ZM256.003 253.336H272.003V269.336H256.003V253.336Z" fill="url(#paint0_linear_864_195)"/>
<defs>
<linearGradient id="paint0_linear_864_195" x1="248.003" y1="493.336" x2="248.003" y2="0.00799806" gradientUnits="userSpaceOnUse">
<stop stop-color="#83D4F9"/>
<stop offset="1" stop-color="#7678EC"/>
</linearGradient>
</defs>
</svg>
